<svg width="33.000000" height="32.000000" viewBox="0 0 33 32" fill="none" xmlns="http://www.w3.org/2000/svg" xmlns:xlink="http://www.w3.org/1999/xlink">
	<desc>
			Created with Pixso.
	</desc>
	<defs/>
	<path id="Vector" d="M26.39 5.05L26.39 1.68C26.39 1.23 26.22 0.8 25.91 0.49C25.6 0.17 25.18 0 24.75 0C24.31 0 23.89 0.17 23.58 0.49C23.27 0.8 23.1 1.23 23.1 1.68L23.1 5.05L9.89 5.05L9.89 1.68C9.89 1.23 9.72 0.8 9.41 0.49C9.1 0.17 8.68 0 8.25 0C7.81 0 7.39 0.17 7.08 0.49C6.77 0.8 6.6 1.23 6.6 1.68L6.6 5.05L0 5.05L0 32L33 32L33 5.05L26.39 5.05ZM29.7 28.63L3.29 28.63L3.29 8.42L29.7 8.42L29.7 28.63ZM11.54 13.47L8.25 13.47L8.25 16.84L11.54 16.84L11.54 13.47ZM11.54 20.21L8.25 20.21L8.25 23.57L11.54 23.57L11.54 20.21ZM24.75 13.47L14.85 13.47L14.85 16.84L24.75 16.84L24.75 13.47ZM24.75 20.21L14.85 20.21L14.85 23.57L24.75 23.57L24.75 20.21Z" fill="#1C242C" fill-opacity="1.000000" fill-rule="nonzero"/>
</svg>
