<svg width="39.499023" height="20.423828" viewBox="0 0 39.499 20.4238" fill="none" xmlns="http://www.w3.org/2000/svg" xmlns:xlink="http://www.w3.org/1999/xlink">
	<desc>
			Created with Pixso.
	</desc>
	<defs/>
	<path id="Vector" d="M2.08 20.35C9.49 20.35 16.98 20.41 24.38 20.42C25.5 20.41 26.59 20.04 27.48 19.36C28.37 18.69 29.02 17.74 29.32 16.66L10.25 16.66C9.99 16.65 9.74 16.57 9.53 16.43C9.31 16.29 9.13 16.09 9.01 15.86C8.9 15.63 8.85 15.37 8.86 15.11C8.88 14.86 8.97 14.61 9.11 14.39L10.56 11.97L26.52 11.97C27.61 11.93 28.67 11.55 29.53 10.88C30.39 10.2 31.02 9.27 31.32 8.22L12.86 8.22C13.09 7.85 14.42 5.63 14.78 5.04C14.97 4.64 15.27 4.3 15.65 4.07C16.02 3.83 16.46 3.71 16.9 3.71L34.77 3.76C35.85 3.7 36.89 3.31 37.74 2.63C38.58 1.96 39.2 1.04 39.49 0L13.93 0C12.94 0.04 10.92 -0.17 9.19 2.72L0.25 17.39C0.04 17.77 -0.04 18.21 0.01 18.64C0.06 19.08 0.25 19.49 0.54 19.81C0.75 20 0.99 20.14 1.26 20.24C1.52 20.33 1.8 20.37 2.08 20.35Z" fill="#FFFFFF" fill-opacity="1.000000" fill-rule="evenodd"/>
</svg>
