<svg width="38.494629" height="20.375793" viewBox="0 0 38.4946 20.3758" fill="none" xmlns="http://www.w3.org/2000/svg" xmlns:xlink="http://www.w3.org/1999/xlink">
	<desc>
			Created with Pixso.
	</desc>
	<defs/>
	<path id="Vector" d="M38.33 2.07C38.43 1.87 38.49 1.65 38.49 1.43C38.49 1.2 38.43 0.98 38.33 0.78C38.19 0.54 38 0.35 37.77 0.21C37.54 0.07 37.27 0 37 0L32.56 0L23.01 15.69C22.83 15.99 22.57 16.23 22.26 16.4C21.95 16.57 21.6 16.65 21.25 16.63C18.26 16.63 13.57 16.63 10.58 16.63C10.36 16.6 10.15 16.51 9.96 16.37C9.78 16.24 9.63 16.06 9.53 15.86C9.43 15.66 9.37 15.43 9.38 15.21C9.38 14.98 9.43 14.76 9.54 14.55C10.87 12.39 14.9 5.78 16.24 3.62L17.05 2.18C17.17 1.96 17.24 1.71 17.24 1.46C17.24 1.21 17.18 0.96 17.06 0.74C16.94 0.52 16.76 0.34 16.54 0.21C16.33 0.08 16.08 0 15.83 0L11.27 0L0.24 18.15C-0.25 18.92 -0.06 20.4 1.32 20.37L24.19 20.37C26.83 20.31 27.89 19.23 29.28 16.89C32.03 12.47 35.67 6.47 38.33 2.07Z" fill="#FFFFFF" fill-opacity="1.000000" fill-rule="evenodd"/>
</svg>
