<svg width="228.563477" height="46.000000" viewBox="0 0 228.563 46" fill="none" xmlns="http://www.w3.org/2000/svg" xmlns:xlink="http://www.w3.org/1999/xlink">
	<desc>
			Created with Pixso.
	</desc>
	<defs/>
	<path id="Vector" d="M90.49 44.74L78.5 44.74L78.5 31.47L89.52 31.47C92.53 31.47 94.49 33.09 94.49 35.64C94.49 36.31 94.34 36.96 94.05 37.56C94.5 37.93 94.85 38.39 95.09 38.92C95.33 39.44 95.45 40.02 95.43 40.59C95.43 42.6 94.15 44.74 90.49 44.74ZM81.92 41.33L90.49 41.33C90.96 41.37 91.43 41.28 91.85 41.06C91.95 41.01 92.05 40.95 92.05 40.59C92.05 40.37 92.05 39.83 90.49 39.83L81.93 39.83L81.92 41.33ZM81.92 36.42L89.55 36.42C90.02 36.46 90.49 36.36 90.91 36.14C90.99 36.08 91.1 36 91.1 35.64C91.1 35.42 91.1 34.88 89.55 34.88L81.92 34.88L81.92 36.42Z" fill="#5CA3FF" fill-opacity="1.000000" fill-rule="nonzero"/>
	<path id="Vector" d="M128.23 36.66C128.26 37.4 128.11 38.13 127.79 38.8C127.46 39.46 126.98 40.03 126.37 40.46C125.27 41.16 123.98 41.51 122.67 41.47L119.35 41.47L119.35 44.74L115.94 44.74L115.94 41.44L112.63 41.44C111.35 41.49 110.08 41.16 108.99 40.48C108.39 40.06 107.9 39.51 107.57 38.86C107.23 38.21 107.06 37.49 107.07 36.76C107.07 33.84 109.19 32.02 112.63 31.99L115.94 31.99L115.94 31.49L119.35 31.49L119.35 31.99L122.59 31.99C123.89 31.93 125.19 32.26 126.3 32.95C126.91 33.36 127.4 33.91 127.73 34.56C128.07 35.21 128.24 35.93 128.23 36.66ZM115.94 38.03L115.94 35.39L112.66 35.39C110.49 35.39 110.49 36.28 110.49 36.72C110.49 37.16 110.49 38.03 112.7 38L115.94 38.03ZM124.84 36.7C124.86 36.53 124.83 36.35 124.76 36.19C124.69 36.03 124.57 35.89 124.42 35.79C123.88 35.49 123.26 35.35 122.64 35.39L119.4 35.39L119.4 38.03L122.7 38.03C123.32 38.06 123.93 37.92 124.47 37.62C124.6 37.51 124.71 37.37 124.77 37.21C124.83 37.05 124.84 36.87 124.81 36.7L124.84 36.7Z" fill="#5CA3FF" fill-opacity="1.000000" fill-rule="nonzero"/>
	<path id="Vector" d="M159.42 44.73L153.34 39.93L153.34 44.74L149.92 44.74L149.92 31.49L153.34 31.49L153.34 36.27L159.24 31.5L164.78 31.5L156.69 38.09L165.04 44.73L159.42 44.73Z" fill="#5CA3FF" fill-opacity="1.000000" fill-rule="nonzero"/>
	<path id="Vector" d="M182.69 31.56L173.26 44.69L166.79 44.74L166.79 41.33L171.47 41.26L172.36 39.99L166.42 31.47L170.61 31.47L174.49 37.05L178.45 31.51L182.69 31.56Z" fill="#5CA3FF" fill-opacity="1.000000" fill-rule="nonzero"/>
	<path id="Vector" d="M191.59 45.03C189.57 45.12 187.56 44.59 185.84 43.51C184.97 42.91 184.26 42.09 183.79 41.14C183.31 40.19 183.09 39.13 183.13 38.07C183.13 33.73 186.3 31.13 191.59 31.13C195.77 31.13 198.73 32.8 199.68 35.73L196.45 36.82C195.78 34.83 193.11 34.52 191.59 34.52C186.55 34.52 186.55 37.2 186.55 38.07C186.55 40.42 188.25 41.61 191.59 41.61C193.41 41.61 195.73 41.26 196.45 39.49L199.62 40.75C198.52 43.51 195.67 45.03 191.59 45.03Z" fill="#5CA3FF" fill-opacity="1.000000" fill-rule="nonzero"/>
	<path id="Vector" d="M205.77 34.88L205.77 36.41L215.83 36.41L215.83 39.83L205.77 39.83L205.77 41.35L217.32 41.35L217.32 44.74L202.35 44.74L202.35 31.47L217.32 31.47L217.32 34.88L205.77 34.88Z" fill="#5CA3FF" fill-opacity="1.000000" fill-rule="nonzero"/>
	<path id="Vector" d="M141.86 30.89L140.4 33.43C139.43 33.06 138.36 33 137.36 33.27C136.47 33.51 135.66 33.98 135.03 34.64C134.39 35.31 133.95 36.13 133.76 37.03C133.56 37.93 133.62 38.86 133.92 39.73C134.22 40.59 134.75 41.36 135.47 41.94L134 44.5C132.42 43.36 131.32 41.66 130.91 39.75C130.5 37.84 130.82 35.85 131.8 34.16C132.77 32.47 134.35 31.2 136.21 30.6C138.07 30 140.08 30.12 141.86 30.92L141.86 30.89Z" fill="#FFFFFF" fill-opacity="1.000000" fill-rule="nonzero"/>
	<path id="Vector" d="M146.26 36.06C146.65 37.5 146.62 39.02 146.17 40.45C145.73 41.87 144.89 43.14 143.76 44.11C142.62 45.08 141.24 45.7 139.76 45.91C138.28 46.13 136.78 45.92 135.42 45.31L136.88 42.77C137.99 43.18 139.2 43.19 140.31 42.79C141.42 42.4 142.36 41.62 142.95 40.6C143.54 39.58 143.75 38.38 143.55 37.22C143.34 36.05 142.72 35 141.82 34.25L143.28 31.72C144.75 32.78 145.8 34.31 146.26 36.06Z" fill="#5CA3FF" fill-opacity="1.000000" fill-rule="nonzero"/>
	<path id="Vector" d="M140.91 38.09C140.91 39.34 139.89 40.36 138.64 40.36C137.39 40.36 136.38 39.34 136.38 38.09C136.38 36.84 137.39 35.83 138.64 35.83C139.89 35.83 140.91 36.84 140.91 38.09Z" fill="#FFFFFF" fill-opacity="1.000000" fill-rule="evenodd"/>
	<path id="Vector" d="M70.51 2.09C70.62 1.89 70.68 1.67 70.68 1.44C70.68 1.22 70.62 1 70.51 0.8C70.38 0.56 70.19 0.36 69.96 0.23C69.72 0.09 69.46 0.02 69.19 0.01L64.75 0.01L55.19 15.7C55.01 16 54.75 16.25 54.45 16.42C54.14 16.58 53.79 16.66 53.44 16.65C50.45 16.65 45.75 16.65 42.77 16.65C42.55 16.61 42.33 16.53 42.15 16.39C41.97 16.26 41.82 16.08 41.71 15.88C41.61 15.68 41.56 15.45 41.56 15.22C41.56 15 41.62 14.77 41.73 14.57C43.06 12.4 47.09 5.8 48.42 3.64L49.23 2.2C49.36 1.98 49.43 1.73 49.43 1.48C49.43 1.23 49.37 0.98 49.25 0.76C49.12 0.54 48.95 0.36 48.73 0.22C48.52 0.09 48.27 0.02 48.02 0.01L43.46 0.01L32.42 18.17C31.94 18.94 32.13 20.42 33.51 20.39L56.37 20.39C59.02 20.33 60.08 19.25 61.46 16.91C64.21 12.48 67.86 6.48 70.51 2.09Z" fill="#FFFFFF" fill-opacity="1.000000" fill-rule="evenodd"/>
	<path id="Vector" d="M116.47 15.79C116.27 16.06 116.01 16.28 115.7 16.43C115.4 16.59 115.07 16.66 114.73 16.66L103.65 16.66C103.41 16.66 103.17 16.59 102.97 16.47C102.76 16.35 102.59 16.18 102.47 15.97C102.35 15.76 102.29 15.53 102.28 15.29C102.28 15.05 102.34 14.81 102.46 14.6C103.41 12.99 106.94 7.21 107.89 5.61C108.35 4.84 108.94 3.75 110.32 3.75L121.32 3.75C121.56 3.76 121.8 3.82 122.01 3.95C122.23 4.07 122.4 4.25 122.53 4.46C122.65 4.67 122.72 4.91 122.72 5.16C122.73 5.4 122.67 5.64 122.56 5.86L116.47 15.79ZM95.44 20.43L116.47 20.43C119.44 20.38 120.93 20.02 122.76 16.84C125.36 12.48 128.42 7.57 131.03 3.25C131.27 2.87 131.38 2.43 131.35 1.98C131.32 1.53 131.15 1.11 130.86 0.76C130.68 0.53 130.45 0.35 130.19 0.22C129.92 0.09 129.64 0.02 129.34 0.01L107.21 0.01C106.26 0.02 105.33 0.28 104.51 0.77C103.7 1.26 103.03 1.96 102.59 2.8L93.69 17.36C93.49 17.67 93.39 18.02 93.38 18.38C93.37 18.75 93.46 19.11 93.64 19.42C93.82 19.74 94.08 20 94.4 20.17C94.71 20.35 95.07 20.44 95.44 20.43Z" fill="#FFFFFF" fill-opacity="1.000000" fill-rule="evenodd"/>
	<path id="Vector" d="M2.08 20.37C9.49 20.37 16.98 20.43 24.38 20.44C25.5 20.43 26.59 20.06 27.48 19.38C28.37 18.7 29.02 17.75 29.32 16.67L10.25 16.67C9.99 16.67 9.74 16.59 9.53 16.45C9.31 16.31 9.13 16.11 9.01 15.88C8.9 15.65 8.85 15.39 8.86 15.13C8.88 14.87 8.97 14.62 9.11 14.41L10.56 11.98L26.52 11.98C27.61 11.95 28.67 11.57 29.53 10.89C30.39 10.22 31.02 9.29 31.32 8.24L12.86 8.24C13.09 7.87 14.42 5.65 14.78 5.06C14.97 4.66 15.27 4.32 15.65 4.08C16.02 3.85 16.46 3.72 16.9 3.72L34.77 3.77C35.85 3.72 36.89 3.33 37.74 2.65C38.58 1.98 39.2 1.05 39.49 0.01L13.93 0.01C12.94 0.05 10.92 -0.15 9.19 2.74L0.25 17.4C0.04 17.79 -0.04 18.23 0.01 18.66C0.06 19.1 0.25 19.5 0.54 19.83C0.75 20.02 0.99 20.16 1.26 20.25C1.52 20.35 1.8 20.39 2.08 20.37Z" fill="#FFFFFF" fill-opacity="1.000000" fill-rule="evenodd"/>
	<path id="Vector" d="M134.87 14.51L142.3 2.32C142.47 2.11 142.58 1.85 142.61 1.58C142.64 1.31 142.59 1.04 142.47 0.8C142.35 0.56 142.16 0.35 141.93 0.21C141.7 0.07 141.43 0 141.16 0.01L136.69 0.01L126.17 17.21C125.93 17.53 125.78 17.91 125.76 18.32C125.74 18.72 125.84 19.12 126.04 19.47C126.25 19.78 126.54 20.03 126.88 20.2C127.22 20.37 127.59 20.45 127.97 20.43L149.65 20.43C150.78 20.43 151.87 20.06 152.77 19.39C153.68 18.72 154.34 17.78 154.67 16.71L136.01 16.67C135.79 16.67 135.57 16.62 135.37 16.52C135.18 16.42 135.01 16.28 134.88 16.1C134.71 15.87 134.61 15.59 134.6 15.3C134.6 15.01 134.68 14.73 134.83 14.48L134.87 14.51Z" fill="#FFFFFF" fill-opacity="1.000000" fill-rule="evenodd"/>
	<path id="Vector" d="M174.79 3.74L185.93 3.74C186.13 3.75 186.33 3.8 186.51 3.89C186.69 3.98 186.85 4.11 186.98 4.27C187.18 4.5 187.29 4.79 187.3 5.09C187.32 5.39 187.23 5.69 187.06 5.94L185.66 8.23L170.83 8.23L172.92 4.87C173.09 4.51 173.35 4.22 173.68 4.02C174.01 3.82 174.4 3.72 174.79 3.74ZM194.2 0.04C194.46 0.03 194.73 0.08 194.98 0.18C195.23 0.27 195.45 0.42 195.65 0.6C195.99 0.93 196.2 1.37 196.24 1.84C196.28 2.31 196.15 2.78 195.88 3.17L185.36 20.41L180.64 20.41C180.4 20.39 180.17 20.31 179.97 20.17C179.77 20.04 179.61 19.86 179.5 19.64C179.4 19.43 179.34 19.19 179.35 18.95C179.36 18.71 179.43 18.47 179.56 18.27L183.37 12.02L168.55 12.02L163.44 20.4C161.93 20.4 160.43 20.4 158.92 20.4C158.71 20.39 158.5 20.34 158.31 20.24C158.12 20.15 157.95 20.02 157.81 19.85C157.63 19.62 157.53 19.34 157.52 19.05C157.51 18.76 157.59 18.48 157.75 18.24L167.29 2.58C167.76 1.75 168.46 1.07 169.3 0.61C170.14 0.16 171.1 -0.05 172.05 0.01L194.2 0.04Z" fill="#FFFFFF" fill-opacity="1.000000" fill-rule="evenodd"/>
	<path id="Vector" d="M79.26 0.01L100.22 0.01C99.93 1.07 99.31 2 98.45 2.68C97.59 3.35 96.53 3.74 95.43 3.77L81.68 3.77C81.29 3.74 80.89 3.82 80.55 4.02C80.21 4.22 79.93 4.51 79.75 4.87L70.28 20.43L65.76 20.43C65.52 20.44 65.29 20.4 65.07 20.29C64.86 20.19 64.68 20.03 64.55 19.83C64.4 19.59 64.32 19.32 64.32 19.04C64.32 18.76 64.4 18.49 64.55 18.25L73.92 2.88C75.37 0.48 76.83 0.08 78.78 0.05L79.26 0.01Z" fill="#FFFFFF" fill-opacity="1.000000" fill-rule="evenodd"/>
	<path id="Vector" d="M228.23 2.3C228.42 2.08 228.53 1.81 228.55 1.53C228.58 1.24 228.52 0.96 228.37 0.71C228.23 0.46 228.02 0.26 227.76 0.13C227.5 0.01 227.21 -0.03 226.93 0.01L222.73 0.01L213.53 14.99L207.55 1.47C207.41 1.03 207.12 0.65 206.74 0.39C206.36 0.12 205.9 -0.01 205.44 0.01L201.4 0.01C197.92 5.67 194.57 11.29 191.09 16.92C190.89 17.25 190.48 17.89 190.33 18.16C189.52 19.77 190.82 20.4 191.63 20.41L195.95 20.41L204.97 5.54L211.1 19.09C211.25 19.5 211.53 19.86 211.89 20.1C212.26 20.35 212.7 20.46 213.14 20.43L217.19 20.43L228.23 2.3Z" fill="#FFFFFF" fill-opacity="1.000000" fill-rule="evenodd"/>
</svg>
