<svg width="1853.352051" height="373.000244" viewBox="0 0 1853.35 373" fill="none" xmlns="http://www.w3.org/2000/svg" xmlns:xlink="http://www.w3.org/1999/xlink">
	<desc>
			Created with Pixso.
	</desc>
	<defs/>
	<g opacity="0.030000">
		<path id="logo_bg_scroll" d="M1853.31 12.4125C1853.1 14.7228 1852.2 16.9163 1850.72 18.7009L1761.13 165.684L1728.33 165.684C1724.76 165.94 1721.21 165.012 1718.22 163.044C1715.23 161.075 1712.98 158.177 1711.81 154.797L1662.09 44.9362L1588.96 165.553L1553.93 165.553C1548.83 165.502 1541.31 162.394 1541.31 154.839C1541.31 152.683 1541.92 150.166 1543.37 147.254C1544.56 145.09 1547.9 139.908 1549.54 137.219C1577.74 91.5695 1604.9 46.0512 1633.1 0.139343L1665.89 0.139343C1669.64 -0.0227051 1673.34 1.04224 1676.43 3.17279C1679.52 5.30334 1681.83 8.38318 1683.01 11.9453L1731.48 121.609L1806.06 0.139343L1840.16 0.139343C1842.45 -0.221924 1844.8 0.123291 1846.89 1.12903C1848.98 2.13477 1850.71 3.75336 1851.86 5.76917C1852.84 7.49384 1853.35 9.43933 1853.35 11.4122C1853.35 11.7452 1853.34 12.0789 1853.31 12.4125ZM1574.73 0.335815C1576.89 0.292297 1579.04 0.675354 1581.05 1.46313C1583.07 2.25092 1584.91 3.42798 1586.47 4.927C1589.22 7.59119 1590.93 11.1546 1591.28 14.9699C1591.32 15.4564 1591.34 15.943 1591.34 16.428C1591.34 19.7466 1590.31 22.9969 1588.37 25.7185L1503.1 165.553L1464.8 165.553C1462.86 165.379 1461 164.713 1459.38 163.619C1457.77 162.525 1456.46 161.039 1455.58 159.3C1454.77 157.693 1454.35 155.918 1454.35 154.121C1454.35 153.975 1454.35 153.828 1454.36 153.681C1454.43 151.734 1455 149.838 1456.01 148.172L1486.9 97.5378L1366.75 97.5378L1325.29 165.487L1288.7 165.487C1286.96 165.404 1285.26 164.965 1283.71 164.198C1282.15 163.431 1280.77 162.352 1279.65 161.027C1278.23 159.154 1277.42 156.889 1277.34 154.541C1277.34 154.408 1277.33 154.275 1277.33 154.142C1277.33 151.932 1277.98 149.766 1279.19 147.91L1356.51 20.9306C1360.37 14.2033 1366.03 8.69012 1372.86 5.0155C1379.69 1.34082 1387.41 -0.34845 1395.15 0.139038L1574.73 0.335815ZM1153.91 18.8319L1093.64 117.674L1093.37 117.477C1092.15 119.36 1091.5 121.556 1091.5 123.796C1091.5 123.893 1091.5 123.99 1091.51 124.086C1091.57 126.427 1092.33 128.696 1093.7 130.594C1094.76 132.028 1096.15 133.19 1097.74 133.988C1099.34 134.786 1101.1 135.196 1102.88 135.186L1254.2 135.514C1251.54 144.234 1246.16 151.871 1238.84 157.303C1231.52 162.734 1222.65 165.672 1213.53 165.684L1037.69 165.684C1034.63 165.842 1031.59 165.206 1028.86 163.838C1026.12 162.47 1023.79 160.417 1022.08 157.879C1020.56 155.342 1019.77 152.447 1019.77 149.504C1019.77 149.192 1019.78 148.881 1019.79 148.569C1019.98 145.306 1021.14 142.175 1023.13 139.58L1108.39 0.139221L1144.66 0.139221C1146.86 0.0771484 1149.02 0.645508 1150.91 1.77692C1152.79 2.90839 1154.3 4.55542 1155.28 6.52283C1156.06 8.11023 1156.47 9.85248 1156.47 11.6122C1156.47 12.0335 1156.44 12.4557 1156.4 12.8772C1156.15 15.0588 1155.29 17.1254 1153.91 18.8319ZM197.766 165.75C137.687 165.685 77.0176 165.225 16.9385 165.225C14.6641 165.353 12.3867 165.031 10.2368 164.277C8.0874 163.522 6.10742 162.352 4.41113 160.831C2.04297 158.192 0.54541 154.887 0.123047 151.366C0.0405273 150.681 0 149.995 0 149.31C0 146.475 0.699219 143.672 2.0498 141.155L74.5908 22.2429C87.5273 0.661377 102.415 0.364319 110.983 0.193359C111.711 0.178833 112.394 0.165222 113.025 0.139587L320.285 0.139587C317.885 8.58667 312.9 16.0703 306.031 21.5402C299.161 27.01 290.751 30.1915 281.981 30.6382L137.096 30.2446C133.5 30.2328 129.976 31.244 126.933 33.1602C123.89 35.0764 121.455 37.8187 119.912 41.0667C116.961 45.8547 106.204 63.8259 104.302 66.8429L254.041 66.8429C251.591 75.3733 246.5 82.9078 239.5 88.364C232.5 93.8201 223.951 96.9172 215.081 97.2103L85.6753 97.2103L73.9346 116.887C72.7485 118.62 72.0483 120.639 71.9082 122.734C71.8906 122.996 71.8818 123.258 71.8818 123.52C71.8818 125.35 72.3096 127.159 73.1362 128.8C74.0806 130.676 75.5112 132.263 77.2783 133.398C79.0449 134.533 81.084 135.173 83.1826 135.252L237.774 135.252C235.324 143.991 230.094 151.695 222.875 157.198C215.656 162.7 206.842 165.703 197.766 165.75ZM573.137 11.7487C573.137 13.58 572.683 15.3827 571.816 16.9958C550.303 52.6102 520.723 101.277 498.423 137.154C487.207 156.109 478.615 164.898 457.168 165.357L271.75 165.357C264.135 165.535 260.995 160.06 260.995 154.575C260.995 151.982 261.697 149.386 262.961 147.385L352.423 0.139587L389.415 0.139587C391.455 0.205627 393.442 0.799255 395.184 1.86243C396.925 2.9256 398.362 4.42206 399.353 6.20581C400.328 7.96014 400.838 9.93347 400.838 11.9392C400.838 11.9729 400.838 12.0066 400.838 12.0403C400.821 14.0807 400.274 16.0818 399.253 17.8484L392.694 29.5231C381.873 47.0352 349.209 100.621 338.387 118.199C337.531 119.831 337.077 121.644 337.06 123.487C337.06 123.521 337.06 123.555 337.06 123.589C337.06 125.397 337.482 127.181 338.293 128.797C339.12 130.444 340.328 131.871 341.815 132.959C343.303 134.047 345.028 134.766 346.848 135.055L433.359 135.055C436.2 135.161 439.019 134.506 441.521 133.157C444.023 131.807 446.12 129.813 447.592 127.381L525.052 0.139587L561.06 0.139587C563.253 0.16571 565.4 0.767029 567.288 1.88354C569.176 3 570.737 4.59241 571.816 6.50165C572.683 8.11475 573.137 9.91742 573.137 11.7487ZM642.716 0.139587L812.721 0.139587C810.363 8.70276 805.317 16.2822 798.327 21.7612C791.336 27.2402 782.771 30.329 773.893 30.5726L662.393 30.5726C659.188 30.3295 655.985 31.0486 653.192 32.6378C650.399 34.2269 648.145 36.6138 646.717 39.4926L569.913 165.685L533.249 165.685C531.335 165.821 529.42 165.442 527.702 164.589C525.983 163.736 524.524 162.438 523.477 160.831C522.24 158.927 521.582 156.706 521.582 154.436C521.582 152.166 522.24 149.945 523.477 148.041L599.428 23.4235C611.233 3.94366 623.04 0.729858 638.846 0.467529L642.716 0.139587ZM944.426 165.685L773.896 165.685C770.957 165.771 768.05 165.057 765.486 163.617C762.922 162.178 760.798 160.068 759.343 157.513C757.949 155.067 757.217 152.302 757.217 149.491C757.217 149.366 757.219 149.241 757.222 149.116C757.29 146.177 758.156 143.311 759.729 140.827L831.876 22.7676C835.497 15.9539 840.898 10.2505 847.505 6.26556C854.112 2.28058 861.677 0.16333 869.393 0.139587L1048.84 0.139587C1051.22 0.180115 1053.56 0.748352 1055.69 1.80316C1057.83 2.85803 1059.7 4.37317 1061.17 6.23926C1063.5 9.02386 1064.88 12.4744 1065.11 16.0933C1065.14 16.4647 1065.15 16.8358 1065.15 17.2062C1065.15 20.4454 1064.23 23.6267 1062.48 26.3749C1041.37 61.3991 1016.57 101.211 995.454 136.629C980.631 162.405 968.562 165.291 944.426 165.685ZM1507.7 30.3753L1417.31 30.3753C1414.18 30.2164 1411.06 30.9996 1408.38 32.6243C1405.69 34.249 1403.55 36.6408 1402.23 39.4921L1385.24 66.7769L1505.53 66.7769L1516.88 48.2153C1518.15 46.3364 1518.82 44.1242 1518.82 41.8654C1518.82 41.6831 1518.82 41.5005 1518.81 41.3179C1518.69 38.8706 1517.78 36.5274 1516.22 34.6385C1515.17 33.3773 1513.87 32.3473 1512.41 31.6135C1510.94 30.8797 1509.33 30.4581 1507.7 30.3753ZM938.24 133.3C940.694 132.068 942.816 130.262 944.426 128.037L993.814 47.5599C994.7 45.8797 995.163 44.0098 995.163 42.1127C995.163 42.0255 995.162 41.9384 995.16 41.8512C995.115 39.8647 994.564 37.9225 993.56 36.2084C992.555 34.4942 991.129 33.0649 989.417 32.0557C987.706 31.0465 985.765 30.4909 983.779 30.4414L894.579 30.4414C883.363 30.4414 878.575 39.2958 874.902 45.5267C867.163 58.5132 838.566 105.343 830.827 118.461C829.901 120.127 829.417 122.001 829.417 123.906C829.417 123.939 829.417 123.972 829.417 124.005C829.434 125.944 829.954 127.846 830.925 129.524C831.896 131.202 833.286 132.6 834.958 133.581C836.631 134.562 838.529 135.092 840.468 135.12L930.324 135.12C933.071 135.158 935.786 134.533 938.24 133.3ZM1150.28 250.712L1138.5 271.085C1130.61 268.075 1121.98 267.639 1113.84 269.838C1106.64 271.732 1100.1 275.579 1094.95 280.953C1089.79 286.328 1086.23 293.022 1084.64 300.296C1084.02 303.139 1083.71 306.028 1083.71 308.912C1083.71 313.406 1084.46 317.89 1085.95 322.174C1088.39 329.206 1092.73 335.427 1098.49 340.149L1086.62 360.875C1073.78 351.595 1064.84 337.878 1061.53 322.383C1060.59 317.968 1060.13 313.498 1060.13 309.046C1060.13 297.872 1063.05 286.81 1068.73 277.005C1076.67 263.294 1089.41 253.017 1104.5 248.167C1119.55 243.326 1135.86 244.234 1150.28 250.712ZM1150.28 250.712L1150.37 250.555L1150.37 250.752L1150.28 250.712ZM1553.61 365.204C1537.17 365.908 1520.91 361.608 1506.98 352.873C1499.88 347.971 1494.15 341.352 1490.3 333.633C1486.78 326.56 1484.96 318.775 1484.96 310.894C1484.96 310.174 1484.97 309.453 1485 308.732C1485 273.511 1510.71 252.458 1553.61 252.458C1587.45 252.458 1611.46 265.969 1619.2 289.777L1592.96 298.566C1587.58 282.431 1565.87 279.939 1553.61 279.939C1512.68 279.939 1512.68 301.649 1512.68 308.732C1512.68 327.819 1526.52 337.46 1553.61 337.46C1568.37 337.46 1587.12 334.574 1592.96 320.276L1618.67 330.442C1609.75 352.873 1586.67 365.204 1553.61 365.204ZM733.82 362.843L636.553 362.843L636.553 255.212L725.95 255.212C750.349 255.212 766.221 268.33 766.221 289.056C766.222 289.146 766.222 289.236 766.222 289.326C766.222 294.62 765.011 299.845 762.679 304.6C766.298 307.575 769.19 311.338 771.133 315.6C772.962 319.61 773.906 323.962 773.906 328.363C773.906 328.64 773.902 328.918 773.895 329.196C773.895 345.462 763.466 362.843 733.82 362.843ZM1481.4 255.934L1404.98 362.384L1352.51 362.843L1352.51 335.164L1390.42 334.64L1397.64 324.277L1349.5 255.212L1383.47 255.212L1414.89 300.468L1447.03 255.54L1481.4 255.934ZM1668.58 282.891L1668.58 295.287L1750.11 295.287L1750.11 323.031L1668.58 323.031L1668.58 335.296L1762.24 335.296L1762.24 362.843L1640.84 362.843L1640.84 255.212L1762.24 255.212L1762.24 282.891L1668.58 282.891ZM1039.79 297.32C1039.81 297.902 1039.83 298.483 1039.83 299.064C1039.83 304.452 1038.6 309.777 1036.23 314.632C1033.6 320.01 1029.66 324.637 1024.77 328.081C1015.81 333.787 1005.34 336.667 994.727 336.345L967.835 336.345L967.835 362.843L940.157 362.843L940.157 336.083L913.332 336.083C902.933 336.501 892.649 333.781 883.817 328.278C878.945 324.914 874.979 320.402 872.267 315.139C869.638 310.037 868.269 304.382 868.269 298.647C868.269 298.468 868.27 298.287 868.272 298.107C868.272 274.43 885.391 259.673 913.332 259.476L940.157 259.476L940.157 255.344L967.835 255.344L967.835 259.476L994.071 259.476C1004.66 258.956 1015.15 261.654 1024.18 267.215C1029.08 270.54 1033.07 275.034 1035.79 280.291C1038.42 285.359 1039.79 290.982 1039.79 296.684C1039.79 296.896 1039.79 297.108 1039.79 297.32ZM1292.77 362.712L1243.44 323.818L1243.44 362.843L1215.7 362.843L1215.7 255.344L1243.44 255.344L1243.44 294.107L1291.26 255.475L1336.19 255.475L1270.6 308.864L1338.28 362.712L1292.77 362.712ZM1186.05 292.467C1187.5 297.882 1188.22 303.436 1188.22 308.986C1188.22 315.41 1187.25 321.83 1185.32 328.024C1181.72 339.569 1174.93 349.86 1165.73 357.704C1156.53 365.549 1145.29 370.626 1133.32 372.348C1121.35 374.07 1109.14 372.366 1098.1 367.434L1109.97 346.839C1118.93 350.197 1128.79 350.271 1137.8 347.047C1146.81 343.823 1154.39 337.51 1159.18 329.23C1162.77 323.029 1164.63 316.026 1164.63 308.944C1164.63 306.568 1164.43 304.183 1164 301.816C1162.32 292.396 1157.35 283.878 1149.98 277.775L1161.85 257.246C1173.74 265.841 1182.29 278.285 1186.05 292.467ZM664.297 295.352L726.146 295.352C729.965 295.676 733.794 294.878 737.165 293.057C737.821 292.598 738.739 291.942 738.739 289.056C738.739 287.219 738.739 282.891 726.146 282.891L664.297 282.891L664.297 295.352ZM1012.3 297.648C1012.35 297.317 1012.37 296.984 1012.37 296.652C1012.37 295.558 1012.14 294.472 1011.68 293.468C1011.09 292.159 1010.15 291.04 1008.96 290.237C1004.54 287.792 999.505 286.676 994.464 287.023L968.229 287.023L968.229 308.405L994.989 308.405C999.974 308.641 1004.93 307.483 1009.29 305.06C1010.39 304.203 1011.24 303.058 1011.74 301.751C1012.07 300.883 1012.24 299.965 1012.24 299.044C1012.24 298.578 1012.19 298.111 1012.11 297.648L1012.3 297.648ZM940.157 308.405L940.157 287.023L913.528 287.023C895.951 287.023 895.951 294.238 895.951 297.78C895.951 301.321 895.951 308.405 913.856 308.208L940.157 308.405ZM1142.63 308.929C1142.63 319.072 1134.41 327.294 1124.26 327.294C1114.12 327.294 1105.9 319.072 1105.9 308.929C1105.9 298.787 1114.12 290.565 1124.26 290.565C1134.41 290.565 1142.63 298.787 1142.63 308.929ZM664.297 335.164L733.82 335.164C737.625 335.51 741.448 334.759 744.839 333C745.626 332.541 746.413 332.082 746.413 329.196C746.413 327.359 746.413 323.031 733.82 323.031L664.428 323.031L664.297 335.164Z" clip-rule="evenodd" fill="#FFFFFF" fill-opacity="1.000000" fill-rule="evenodd"/>
	</g>
</svg>
