<svg width="28.030273" height="33.000000" viewBox="0 0 28.0303 33" fill="none" xmlns="http://www.w3.org/2000/svg" xmlns:xlink="http://www.w3.org/1999/xlink">
	<desc>
			Created with Pixso.
	</desc>
	<defs/>
	<path id="Union" d="M17.1294 0L10.9004 0C4.67188 0 0.000488281 4.68187 0.000488281 10.9106L0.000488281 17.1394C-0.012207 18.8869 0.381836 20.6133 1.15186 22.1822C1.78809 23.4804 2.69092 24.6296 3.80225 25.5544L4.90918 26.3587L14.0151 33L23.1211 26.3587L24.228 25.5544C25.3389 24.6296 26.2422 23.4804 26.8779 22.1822C27.6479 20.6133 28.042 18.8869 28.0298 17.1394L28.0298 10.9106C28.0298 4.68187 23.3579 0 17.1294 0ZM17.1294 3.4375C21.4536 3.4375 24.5923 6.57594 24.5923 10.9003L24.5923 17.1394C24.6064 18.3549 24.3354 19.5569 23.8018 20.6491C23.395 21.4829 22.8218 22.2246 22.1172 22.8284L21.0962 23.5813L14.0151 28.7375L6.93018 23.5813L5.92334 22.8491C5.21875 22.2453 4.64551 21.5036 4.23877 20.6697C3.70459 19.5776 3.43408 18.3756 3.44824 17.16L3.44824 10.9106C3.43799 6.58626 6.57617 3.4375 10.9004 3.4375L17.1294 3.4375ZM10.4941 7.64297C11.5791 6.91814 12.8545 6.53125 14.1592 6.53125C15.9087 6.53125 17.5864 7.22624 18.8237 8.46333C20.0605 9.70044 20.7559 11.3783 20.7559 13.1278C20.7559 14.4325 20.3687 15.7079 19.644 16.7927C18.9189 17.8775 17.8887 18.723 16.6836 19.2222C15.478 19.7215 14.1519 19.8522 12.8721 19.5976C11.5928 19.3431 10.417 18.7148 9.49463 17.7923C8.57227 16.8697 7.94385 15.6944 7.68945 14.4147C7.43457 13.1351 7.56543 11.8088 8.06445 10.6034C8.56396 9.39806 9.40918 8.36781 10.4941 7.64297ZM15.9141 10.5011C15.3945 10.154 14.7837 9.96875 14.1592 9.96875C13.3213 9.96967 12.5186 10.3028 11.9263 10.895C11.334 11.4873 11.001 12.2903 11 13.1278C11 13.7526 11.1851 14.3634 11.5322 14.8829C11.8794 15.4024 12.373 15.8073 12.9502 16.0464C13.5273 16.2855 14.1626 16.3481 14.7754 16.2262C15.3882 16.1043 15.9512 15.8034 16.3931 15.3616C16.8345 14.9198 17.1357 14.3569 17.2573 13.7441C17.3794 13.1313 17.3169 12.4961 17.0776 11.9189C16.8384 11.3416 16.4336 10.8483 15.9141 10.5011Z" clip-rule="evenodd" fill="#1C242C" fill-opacity="1.000000" fill-rule="evenodd"/>
</svg>
