<svg width="31.000000" height="31.000000" viewBox="0 0 31 31" fill="none" xmlns="http://www.w3.org/2000/svg" xmlns:xlink="http://www.w3.org/1999/xlink">
	<desc>
			Created with Pixso.
	</desc>
	<defs/>
	<path id="Union" d="M26.4893 4.51381C25.0625 3.0784 23.3647 1.94032 21.4951 1.16551C19.6255 0.390717 17.6201 -0.00541687 15.5962 6.10352e-05L14.0557 6.10352e-05L14.0557 6.16219L17.1372 6.16219L17.1372 3.17355C19.8999 3.52275 22.4634 4.79738 24.4097 6.7897C26.3555 8.78204 27.5693 11.3746 27.853 14.145C28.1367 16.9153 27.4736 19.7 25.9722 22.0454C24.4702 24.3908 22.2188 26.1585 19.5835 27.0605C16.9487 27.9624 14.0859 27.9455 11.4614 27.0124C8.8374 26.0793 6.60693 24.2851 5.13281 21.9221C3.65918 19.5591 3.0293 16.7667 3.3457 14C3.66211 11.2332 4.90674 8.65514 6.87598 6.68596L7.96973 5.60759L5.79736 3.42004L4.70361 4.51381C3.23193 5.93491 2.05811 7.6348 1.25098 9.51431C0.443359 11.3938 0.0185547 13.4153 0.000488281 15.4608C-0.0170898 17.5063 0.372559 19.5349 1.14746 21.4281C1.92188 23.3214 3.06592 25.0414 4.5127 26.4879C5.95898 27.9343 7.6792 29.0782 9.57275 29.8528C11.4663 30.6274 13.4951 31.0172 15.541 30.9994C17.5864 30.9816 19.6084 30.5567 21.4878 29.7493C23.3677 28.9419 25.0679 27.7683 26.4893 26.2969C29.3774 23.408 31 19.4903 31 15.4054C31 11.3204 29.3774 7.40274 26.4893 4.51381ZM17.7568 15.4173L17.7686 15.4054L17.7568 15.3935L17.7568 15.369L17.7324 15.369L10.1421 7.77974L7.96973 9.95189L14.6851 16.6662L14.6855 26.1537L17.7573 26.1539L17.7568 15.4173Z" clip-rule="evenodd" fill="#1C242C" fill-opacity="1.000000" fill-rule="evenodd"/>
</svg>
